<svg width="11" height="11" viewBox="0 0 11 11" fill="none" xmlns="http://www.w3.org/2000/svg">
<path d="M10.1717 3.61642C10.0253 3.43964 9.80198 3.3267 9.58111 3.3267H8.96651L6.59453 0.333754C6.44809 0.144701 6.1888 0.107872 5.99194 0.245366C5.80708 0.395136 5.77107 0.660302 5.90551 0.861632C5.90551 0.873908 5.91751 0.873908 5.91751 0.886185L7.87175 3.32424H2.61164L4.55387 0.886185C4.71472 0.709407 4.70032 0.434419 4.52986 0.269918C4.35941 0.105417 4.08812 0.120148 3.92727 0.294471C3.91526 0.306747 3.90326 0.319023 3.89125 0.331299L1.51688 3.33897H1.02472C0.606984 3.33897 0.263672 3.69253 0.263672 4.11974C0.263672 4.16885 0.263672 4.22041 0.275676 4.26951L1.26 9.33468C1.35843 9.86256 1.81218 10.2407 2.34275 10.2407H8.26788C8.79605 10.2407 9.2522 9.86256 9.35063 9.33468L10.335 4.26951C10.3806 4.04363 10.3181 3.80547 10.1717 3.61642ZM4.0257 7.7265C4.0257 7.96466 3.82883 8.16599 3.59596 8.16599C3.36308 8.16599 3.16622 7.96466 3.16622 7.7265V5.94153C3.16622 5.70338 3.36308 5.50205 3.59596 5.50205C3.82883 5.50205 4.0257 5.70338 4.0257 5.94153V7.7265ZM5.73265 7.7265C5.73265 7.96466 5.53579 8.16599 5.30291 8.16599C5.07004 8.16599 4.87317 7.96466 4.87317 7.7265V5.94153C4.87317 5.70338 5.07004 5.50205 5.30291 5.50205C5.53579 5.50205 5.73265 5.70338 5.73265 5.94153V7.7265ZM7.43001 7.7265C7.43001 7.96466 7.23314 8.16599 7.00027 8.16599C6.76739 8.16599 6.57053 7.96466 6.57053 7.7265V5.94153C6.57053 5.70338 6.76739 5.50205 7.00027 5.50205C7.23314 5.50205 7.43001 5.70338 7.43001 5.94153V7.7265Z" fill="white"/>
</svg>
